<svg xmlns="http://www.w3.org/2000/svg" viewBox="0 0 111.4 292.21"><defs><style>.cls-1{fill:#eeb824;}.cls-2{fill:#ffcf9a;}.cls-3{fill:#451e02;}.cls-4{fill:#306953;}.cls-5{fill:#3b464a;}.cls-6{fill:#ac9253;}.cls-7{font-size:8px;fill:#fff;font-family:Avenir-Heavy, Avenir;font-weight:800;}</style></defs><g id="suppliers"><ellipse id="hoed_1" data-name="hoed 1" class="cls-1" cx="57.22" cy="31.79" rx="34.79" ry="13.47"/><ellipse class="cls-1" cx="56.76" cy="26.61" rx="13.47" ry="18.26"/><path class="cls-2" d="M41.5,28a51.82,51.82,0,0,0,6,19.42C51.92,57.32,56.76,55,56.76,55S61.6,57.32,66,47.41A51.82,51.82,0,0,0,72,28,121.77,121.77,0,0,0,41.5,28Z"/><path class="cls-2" d="M50.71,52.63s-1,5.14-4.49,6.6c-3.85,1.58,8.78,9.21,10.54,8.09V55Z"/><path class="cls-2" d="M62.81,52.63s1,5.14,4.49,6.6c3.85,1.58-8.78,9.21-10.54,8.09V55Z"/><path class="cls-3" d="M41.5,28A50.24,50.24,0,0,0,43.76,38.6c1.26,3.08.34-10.88.34-10.88Z"/><path class="cls-3" d="M72,28A49.59,49.59,0,0,1,69.74,38.6c-1.25,3.08-.33-10.88-.33-10.88Z"/><ellipse class="cls-2" cx="44.49" cy="38.46" rx="1.76" ry="3.63" transform="translate(-10 16.35) rotate(-18.76)"/><ellipse class="cls-2" cx="69.08" cy="38.46" rx="3.63" ry="1.76" transform="translate(10.45 91.51) rotate(-71.24)"/><path class="cls-4" d="M90.36,67.43c-3.1-5-12.91-4.32-16.37-4.94a14.7,14.7,0,0,1-6.26-3.09s-5,8-11,8-11-8-11-8a14.7,14.7,0,0,1-6.26,3.09c-3.46.62-13.27,0-16.37,4.94s-8.53,22-8.53,22l14.84,6s4.24-8.45,4.6-6.14,0,25.24,0,25.24H79.45s-.36-22.93,0-25.24,4.6,6.14,4.6,6.14l14.84-6S93.46,72.4,90.36,67.43Z"/><path class="cls-5" d="M56.76,88H42.53l-3.3-25.43-3.34.29c3.3,25.49,3.18,36.72-2.1,48.88h23Z"/><path class="cls-5" d="M56.76,88H71l3.3-25.43,3.34.29c-3.3,25.49-3.18,36.72,2.1,48.88h-23Z"/><path class="cls-5" d="M33.79,111.71c.86,40.45-.27,83.67-2.62,128.57l14.1,2.35c2.25-30.76,4.58-61.25,11.49-78.6V111.71Z"/><path class="cls-5" d="M79.73,111.71c-.86,40.45.27,83.67,2.62,128.57l-14.11,2.35C66,211.87,63.66,181.38,56.76,164V111.71Z"/><ellipse class="cls-2" cx="27.12" cy="133.2" rx="7.26" ry="5.05"/><path class="cls-2" d="M15.66,89.85c-5.44,10.88-1.4,26.18,4.2,42.21L28,128.18c-3.72-13-7.07-25.27,0-33.39L15.66,89.85"/><ellipse class="cls-2" cx="113.95" cy="127.86" rx="5.05" ry="5.98" transform="translate(-57.23 133.41) rotate(-50.15)"/><path class="cls-2" d="M84.73,95.52C85.4,107.67,96.5,119,109.31,130.1l5.11-7.39c-9.67-9.45-18.66-18.44-16.55-29l-13.14,1.8"/><path class="cls-5" d="M46.58,237.23l-17.47-1.9s.1,27.42-.66,38.59a123.09,123.09,0,0,0-13.56,2.85c-8,2.16-2,4.85-2,4.85,1.58,1.71,26.34,2.54,29,2.14S42.27,261.68,46.58,237.23Z"/><path class="cls-5" d="M66.47,237.23l17.47-1.9s-.1,27.42.66,38.59a123.09,123.09,0,0,1,13.56,2.85c8,2.16,2,4.85,2,4.85-1.57,1.71-26.33,2.54-29,2.14S70.77,261.68,66.47,237.23Z"/><path class="cls-4" d="M98.13,87.12s2.15,5.81,1.21,6.9S84.05,95.4,84.05,95.4l.34-5.21Z"/><rect class="cls-6" x="111.23" y="130.14" width="5.29" height="95.52"/><path class="cls-5" d="M118.69,236.15a4.64,4.64,0,0,0-1.22-1v-9.5h-7v9.5a4.48,4.48,0,0,0-1.22,1h-8.33v27.13c0,4.48,5.85,8.11,13.07,8.11S127,267.76,127,263.28V236.15Z"/><text class="cls-7" transform="translate(45.58 86.08)">BULK.</text></g></svg>