<svg id="user" xmlns="http://www.w3.org/2000/svg" viewBox="0 0 111.4 292.21"><defs><style>.cls-1{fill:#ffcf9a;}.cls-2{fill:#451e02;}.cls-3{fill:#3b464a;}.cls-4{fill:#306953;}.cls-5{font-size:8px;fill:#fff;font-family:Avenir-Heavy, Avenir;font-weight:800;}</style></defs><path class="cls-1" d="M40.81,24.21a51.94,51.94,0,0,0,6,19.43c4.36,9.92,9.2,7.55,9.2,7.55s4.84,2.38,9.22-7.53a51.79,51.79,0,0,0,6.07-19.41A121.22,121.22,0,0,0,40.81,24.21Z"/><path class="cls-1" d="M50,48.87s-1,5.14-4.49,6.6c-3.85,1.58,8.78,9.21,10.54,8.09V51.19Z"/><path class="cls-1" d="M66.59,55.47c-3.53-1.46-4.49-6.6-4.49-6.6l-6.05,2.32V63.56C57.8,64.68,70.44,57.05,66.59,55.47Z"/><path class="cls-2" d="M40.79,24.23a50.24,50.24,0,0,0,2.26,10.61c1.26,3.08.34-10.88.34-10.88Z"/><path class="cls-2" d="M71.29,24.23A49.59,49.59,0,0,1,69,34.84C67.78,37.92,68.7,24,68.7,24Z"/><ellipse class="cls-1" cx="43.78" cy="34.7" rx="1.76" ry="3.63" transform="translate(-8.83 15.92) rotate(-18.76)"/><ellipse class="cls-1" cx="68.37" cy="34.7" rx="3.63" ry="1.76" transform="translate(13.53 88.28) rotate(-71.24)"/><path class="cls-2" d="M68.37,31.55s-.24-6.9-2.76-7.59-7.93-.37-16.38,1.74-10.57-2.38-11.5-5.55a5,5,0,0,1,1.59-5.81c1.28-1.25,1.55-.7,3.7-1.72,16.73-8,30.92,4.1,28.27,11.61Z"/><path class="cls-3" d="M82,237.86c-2.16-40.65-3.43-78.43-2.59-109.45l-25.25,1.3v.82l-21.67-1.11c.84,31-.43,68.8-2.59,109.45l13.51,1c4.25-32.16,8.49-63.35,12.72-74.85,4.11,12.23,8.23,42.58,12.37,73.84Z"/><path class="cls-4" d="M89.65,63.67c-3.1-5-12.91-4.32-16.37-4.94A14.7,14.7,0,0,1,67,55.64s-5.73,8-11,8-11-8-11-8a14.7,14.7,0,0,1-6.26,3.09c-3.46.62-13.27,0-16.37,4.94s-8.53,22-8.53,22l14.84,6s4.24-8.45,4.6-6.14,0,25.24,0,25.24H78.74s-.36-22.93,0-25.24,4.6,6.14,4.6,6.14l14.84-6S92.75,68.64,89.65,63.67Z"/><path class="cls-4" d="M78.74,108.61H33.36c-.58,10.51-1.08,20.53-.84,26.52a151.51,151.51,0,0,0,47,0C79.83,128.55,79.37,118.93,78.74,108.61Z"/><ellipse class="cls-1" cx="26.41" cy="129.43" rx="7.26" ry="5.05"/><path class="cls-1" d="M15,86.08C9.5,97,13.55,112.27,19.15,128.3l8.11-3.88c-3.72-13-7.07-25.27,0-33.39L15,86.08"/><ellipse class="cls-1" cx="85.68" cy="129.43" rx="7.26" ry="5.05"/><path class="cls-1" d="M97.14,86.08c5.45,10.89,1.4,26.19-4.2,42.22l-8.11-3.88c3.72-13,7.07-25.27,0-33.39l12.31-5"/><path class="cls-3" d="M45.87,233.47l-17.47-1.9s.1,27.42-.66,38.58A124.2,124.2,0,0,0,14.18,273c-8,2.16-2,4.85-2,4.85,1.58,1.71,26.34,2.54,29,2.14S41.56,257.92,45.87,233.47Z"/><path class="cls-3" d="M65.76,233.47l17.47-1.9s-.1,27.42.66,38.58A124.73,124.73,0,0,1,97.45,273c8,2.16,2,4.85,2,4.85-1.57,1.71-26.33,2.54-29,2.14S70.06,257.92,65.76,233.47Z"/><text class="cls-5" transform="translate(45.87 87.14)">BULK.</text></svg>