<svg xmlns="http://www.w3.org/2000/svg" viewBox="0 0 111.4 292.21"><defs><style>.cls-1{fill:#eeb824;}.cls-2{fill:#ffcf9a;}.cls-3{fill:#451e02;}.cls-4{fill:#3b464a;}.cls-5{fill:#37bbcd;}.cls-6{fill:#306953;}.cls-7{fill:#7f712c;}.cls-8{fill:#ac9253;}.cls-9{font-size:8px;fill:#fff;font-family:Avenir-Heavy, Avenir;font-weight:800;}</style></defs><g id="distributor"><ellipse id="hoed_1" data-name="hoed 1" class="cls-1" cx="56.4" cy="31.79" rx="34.79" ry="13.47"/><ellipse class="cls-1" cx="55.94" cy="26.61" rx="13.47" ry="18.26"/><path class="cls-2" d="M40.68,28a51.91,51.91,0,0,0,6,19.42C51.1,57.32,55.93,55,55.93,55s4.84,2.37,9.22-7.54a51.91,51.91,0,0,0,6-19.42A121.69,121.69,0,0,0,40.68,28Z"/><path class="cls-2" d="M49.89,52.63s-1,5.14-4.5,6.6c-3.84,1.58,8.79,9.21,10.55,8.09V55Z"/><path class="cls-2" d="M62,52.63s1,5.14,4.5,6.6c3.84,1.58-8.79,9.21-10.54,8.09V55Z"/><path class="cls-3" d="M40.68,28A49.59,49.59,0,0,0,42.94,38.6c1.25,3.08.33-10.88.33-10.88Z"/><path class="cls-3" d="M71.18,28A50.24,50.24,0,0,1,68.92,38.6c-1.25,3.08-.34-10.88-.34-10.88Z"/><ellipse class="cls-2" cx="43.67" cy="38.46" rx="1.76" ry="3.63" transform="translate(-10.05 16.08) rotate(-18.76)"/><ellipse class="cls-2" cx="68.26" cy="38.46" rx="3.63" ry="1.76" transform="translate(9.89 90.73) rotate(-71.24)"/><path class="cls-4" d="M89.54,67.43c-3.1-5-12.91-4.32-16.37-4.94A14.77,14.77,0,0,1,66.9,59.4s-5.88,8-11,8-11-8-11-8a14.77,14.77,0,0,1-6.27,3.09c-3.46.62-13.27,0-16.37,4.94s-8.52,22-8.52,22l14.83,6s4.25-8.45,4.61-6.14,0,25.24,0,25.24H78.62s-.36-22.93,0-25.24,4.61,6.14,4.61,6.14l14.83-6S92.63,72.4,89.54,67.43Z"/><path class="cls-5" d="M78.62,114.5H33.25l-.84,18.68a215.15,215.15,0,0,0,47.05,0Z"/><path class="cls-6" d="M55.94,88H41.7L38.4,62.54l-3.34.29c3.3,25.49,3.19,36.72-2.1,48.88h23Z"/><path class="cls-6" d="M55.94,88H70.17l3.3-25.43,3.34.29c-3.3,25.49-3.19,36.72,2.1,48.88h-23Z"/><path class="cls-6" d="M78.91,111.71H33c.86,40.45-.28,83.67-2.63,128.57l14.11,2.35C46.69,211.87,49,181.38,55.94,164v0c6.9,17.35,9.24,47.84,11.48,78.6l14.11-2.35C79.18,195.38,78,152.16,78.91,111.71Z"/><ellipse class="cls-2" cx="26.29" cy="133.2" rx="7.26" ry="5.05"/><path class="cls-2" d="M14.84,89.85C9.39,100.73,13.44,116,19,132.06l8.1-3.88c-3.71-13-7.07-25.27,0-33.39l-12.3-4.94"/><ellipse class="cls-2" cx="85.57" cy="133.2" rx="7.26" ry="5.05"/><path class="cls-2" d="M97,89.85c5.45,10.88,1.4,26.18-4.19,42.21l-8.11-3.88c3.71-13,7.07-25.27,0-33.39L97,89.85"/><rect class="cls-7" x="21.11" y="100.94" width="3.02" height="28.56"/><rect class="cls-7" x="86.71" y="100.94" width="3.02" height="28.56"/><rect class="cls-8" x="20.12" y="126.94" width="71.64" height="8.46"/><rect class="cls-8" x="20.12" y="115.46" width="71.64" height="8.46"/><rect class="cls-8" x="20.12" y="103.97" width="71.64" height="8.46"/><path class="cls-4" d="M45.76,237.23l-17.47-1.9s.1,27.42-.66,38.59a122.57,122.57,0,0,0-13.56,2.85c-8,2.16-2,4.85-2,4.85,1.57,1.71,26.34,2.54,29,2.14S41.45,261.68,45.76,237.23Z"/><path class="cls-4" d="M65.64,237.23l17.47-1.9s-.1,27.42.66,38.59a122.57,122.57,0,0,1,13.56,2.85c8,2.16,2,4.85,2,4.85-1.58,1.71-26.34,2.54-29,2.14S70,261.68,65.64,237.23Z"/></g><g id="supplier"><text class="cls-9" transform="translate(44.76 85.19)">BULK.</text></g></svg>