<svg xmlns="http://www.w3.org/2000/svg" viewBox="0 0 111.4 292.21"><defs><style>.cls-1{fill:#ffcf9a;}.cls-2{fill:#451e02;}.cls-3{fill:#3b464a;}.cls-4{fill:#eeb824;}.cls-5{fill:#7f712c;}.cls-6{fill:#ac9253;}.cls-7{font-size:8px;fill:#fff;font-family:Avenir-Heavy, Avenir;font-weight:800;}</style></defs><g id="suppliers"><g id="customer"><g id="face"><path class="cls-1" d="M40.69,25.27a51.78,51.78,0,0,0,6,19.42c4.36,9.92,9.2,7.55,9.2,7.55s4.83,2.39,9.22-7.52A51.87,51.87,0,0,0,71.21,25.3,121.76,121.76,0,0,0,40.69,25.27Z"/><path class="cls-1" d="M49.89,49.93s-1,5.13-4.5,6.59c-3.84,1.59,8.79,9.21,10.55,8.09V52.24Z"/><path class="cls-1" d="M66.48,56.52c-3.54-1.46-4.5-6.59-4.5-6.59l-6,2.31V64.61C57.69,65.73,70.32,58.11,66.48,56.52Z"/><path class="cls-2" d="M40.68,25.29A49.59,49.59,0,0,0,42.94,35.9C44.19,39,43.27,25,43.27,25Z"/><path class="cls-2" d="M71.18,25.29A50.24,50.24,0,0,1,68.92,35.9C67.67,39,68.58,25,68.58,25Z"/><path class="cls-2" d="M43.09,32.61s.25-6.9,2.76-7.6,7.93-.37,16.38,1.75,10.57-2.38,11.5-5.55a5,5,0,0,0-1.59-5.82c-1.28-1.25-1.55-.69-3.7-1.71-16.73-8-30.92,4.09-28.27,11.61Z"/><ellipse class="cls-1" cx="43.67" cy="35.75" rx="1.76" ry="3.63" transform="translate(-9.18 15.94) rotate(-18.76)"/><ellipse class="cls-1" cx="68.26" cy="35.75" rx="3.63" ry="1.76" transform="translate(12.46 88.89) rotate(-71.24)"/><path class="cls-3" d="M81.92,238.92c-2.16-40.66-3.43-78.43-2.6-109.45l-25.24,1.29v.82l-21.67-1.11c.83,31-.43,68.8-2.59,109.46l13.5,1c4.25-32.16,8.5-63.36,12.72-74.86,4.11,12.23,8.24,42.58,12.37,73.85Z"/></g><g id="t-shirt"><path class="cls-4" d="M89.54,64.73c-3.1-5-12.91-4.33-16.37-5A14.69,14.69,0,0,1,66.9,56.7s-5.68,8-11,8-11-8-11-8a14.69,14.69,0,0,1-6.27,3.08c-3.46.62-13.27,0-16.37,5s-8.52,22-8.52,22l14.83,6s4.25-8.45,4.61-6.14,0,25.24,0,25.24H78.62s-.36-22.92,0-25.24,4.61,6.14,4.61,6.14l14.83-6S92.63,69.7,89.54,64.73Z"/><path class="cls-4" d="M78.62,111.79H33.25c-.59,9.73-1.08,19-.84,24.54a164.1,164.1,0,0,0,47.05,0C79.72,130.24,79.25,121.34,78.62,111.79Z"/></g><g id="armen"><ellipse class="cls-1" cx="26.29" cy="130.49" rx="7.26" ry="5.05"/><path class="cls-1" d="M14.84,87.14C9.39,98,13.44,113.33,19,129.36l8.1-3.89c-3.71-13-7.07-25.27,0-33.38l-12.3-5"/><ellipse class="cls-1" cx="85.57" cy="130.49" rx="7.26" ry="5.05"/><path class="cls-1" d="M97,87.14c5.45,10.88,1.4,26.19-4.19,42.22l-8.11-3.89c3.71-13,7.07-25.27,0-33.38l12.3-5"/></g><g id="krat"><rect class="cls-5" x="21.11" y="98.24" width="3.02" height="28.56"/><rect class="cls-5" x="86.71" y="98.24" width="3.02" height="28.56"/><rect class="cls-6" x="20.12" y="124.24" width="71.64" height="8.46"/><rect class="cls-6" x="20.12" y="112.75" width="71.64" height="8.46"/><rect class="cls-6" x="20.12" y="101.27" width="71.64" height="8.46"/></g><g id="botten"><path class="cls-3" d="M45.76,234.53l-17.47-1.9s.1,27.42-.66,38.58a125.43,125.43,0,0,0-13.56,2.85c-8,2.17-2,4.86-2,4.86,1.57,1.71,26.34,2.54,29,2.14S41.45,259,45.76,234.53Z"/><path class="cls-3" d="M65.64,234.53l17.47-1.9s-.1,27.42.66,38.58a125.43,125.43,0,0,1,13.56,2.85c8,2.17,2,4.86,2,4.86-1.58,1.71-26.34,2.54-29,2.14S70,259,65.64,234.53Z"/></g><text class="cls-7" transform="translate(45.76 85.19)">BULK.</text></g></g></svg>